<svg xmlns="http://www.w3.org/2000/svg" viewBox="0 0 4.83 2.46"><defs><style>.cls-1{fill:#231f20;}</style></defs><title>HandDrawnarrow5</title><g id="Layer_2" data-name="Layer 2"><g id="Layer_1-2" data-name="Layer 1"><path class="cls-1" d="M4.75.76c.08,0,.1-.11.07-.17A1.82,1.82,0,0,0,4.39,0,.09.09,0,0,0,4.3,0l0,0v0a.08.08,0,0,0,0,.09,1.64,1.64,0,0,0,.14.22,3.15,3.15,0,0,0-2.5.1,4.3,4.3,0,0,0-1.12.77,3.5,3.5,0,0,0-.44.5A1.28,1.28,0,0,0,0,2.36a.08.08,0,0,0,.13.07A2.51,2.51,0,0,0,.51,2a5,5,0,0,1,.43-.49A4,4,0,0,1,2,.75,3.78,3.78,0,0,1,3.28.38,3.15,3.15,0,0,1,4.53.57h0a1.59,1.59,0,0,0-.3.06.53.53,0,0,0-.38.2A.09.09,0,0,0,3.91,1c.14,0,.25,0,.38-.1A3.41,3.41,0,0,1,4.75.76Z"/></g></g></svg>